STARTFONT 2.1
FONT -bited-test0-Regular-R-Normal--36-340-75-75-P-122-ISO10646-1
SIZE 34 75 75
FONTBOUNDINGBOX 15 27 0 -6
STARTPROPERTIES 24
FOUNDRY "bited"
FAMILY_NAME "test0"
WEIGHT_NAME "Regular"
SLANT "R"
SETWIDTH_NAME "Normal"
ADD_STYLE_NAME ""
PIXEL_SIZE 36
POINT_SIZE 340
RESOLUTION_X 75
RESOLUTION_Y 75
SPACING "P"
AVERAGE_WIDTH 122
CHARSET_REGISTRY "ISO10646"
CHARSET_ENCODING "1"
FONT_ASCENT 27
FONT_DESCENT 9
CAP_HEIGHT 21
X_HEIGHT 15
COPYRIGHT ""
BITED_DWIDTH 12
BITED_TABLE_WIDTH -16
BITED_TABLE_CELL_SCALE 2
BITED_EDITOR_GRID_SIZE 96
BITED_EDITOR_CELL_SIZE 12
ENDPROPERTIES
CHARS 95
STARTCHAR U+0020
ENCODING 32
SWIDTH 576 0
DWIDTH 9 0
BBX 0 0 0 0
BITMAP
ENDCHAR
STARTCHAR U+0021
ENCODING 33
SWIDTH 576 0
DWIDTH 9 0
BBX 3 21 3 0
BITMAP
E0
E0
E0
E0
E0
E0
E0
E0
E0
E0
E0
E0
E0
E0
E0
00
00
00
E0
E0
E0
ENDCHAR
STARTCHAR U+0022
ENCODING 34
SWIDTH 768 0
DWIDTH 12 0
BBX 9 9 0 12
BITMAP
E380
E380
E380
E380
E380
E380
E380
E380
E380
ENDCHAR
STARTCHAR U+0023
ENCODING 35
SWIDTH 1152 0
DWIDTH 18 0
BBX 15 21 0 0
BITMAP
1C70
1C70
1C70
1C70
1C70
1C70
FFFE
FFFE
FFFE
1C70
1C70
1C70
FFFE
FFFE
FFFE
1C70
1C70
1C70
1C70
1C70
1C70
ENDCHAR
STARTCHAR U+0024
ENCODING 36
SWIDTH 1152 0
DWIDTH 18 0
BBX 15 21 0 0
BITMAP
0380
0380
0380
1FF0
1FF0
1FF0
E380
E380
E380
1FF0
1FF0
1FF0
038E
038E
038E
1FF0
1FF0
1FF0
0380
0380
0380
ENDCHAR
STARTCHAR U+0025
ENCODING 37
SWIDTH 768 0
DWIDTH 12 0
BBX 9 15 0 3
BITMAP
E380
E380
E380
0380
0380
0380
1C00
1C00
1C00
E000
E000
E000
E380
E380
E380
ENDCHAR
STARTCHAR U+0026
ENCODING 38
SWIDTH 960 0
DWIDTH 15 0
BBX 12 21 0 0
BITMAP
1F80
1F80
1F80
E000
E000
E000
E380
E380
E380
1FF0
1FF0
1FF0
E380
E380
E380
E380
E380
E380
1C70
1C70
1C70
ENDCHAR
STARTCHAR U+0027
ENCODING 39
SWIDTH 384 0
DWIDTH 6 0
BBX 3 9 0 12
BITMAP
E0
E0
E0
E0
E0
E0
E0
E0
E0
ENDCHAR
STARTCHAR U+0028
ENCODING 40
SWIDTH 768 0
DWIDTH 12 0
BBX 9 27 0 -3
BITMAP
0380
0380
0380
1C00
1C00
1C00
1C00
1C00
1C00
E000
E000
E000
E000
E000
E000
E000
E000
E000
1C00
1C00
1C00
1C00
1C00
1C00
0380
0380
0380
ENDCHAR
STARTCHAR U+0029
ENCODING 41
SWIDTH 768 0
DWIDTH 12 0
BBX 9 27 0 -3
BITMAP
E000
E000
E000
1C00
1C00
1C00
1C00
1C00
1C00
0380
0380
0380
0380
0380
0380
0380
0380
0380
1C00
1C00
1C00
1C00
1C00
1C00
E000
E000
E000
ENDCHAR
STARTCHAR U+002A
ENCODING 42
SWIDTH 1152 0
DWIDTH 18 0
BBX 15 15 0 6
BITMAP
0380
0380
0380
E38E
E38E
E38E
1FF0
1FF0
1FF0
E38E
E38E
E38E
0380
0380
0380
ENDCHAR
STARTCHAR U+002B
ENCODING 43
SWIDTH 1152 0
DWIDTH 18 0
BBX 15 15 0 3
BITMAP
0380
0380
0380
0380
0380
0380
FFFE
FFFE
FFFE
0380
0380
0380
0380
0380
0380
ENDCHAR
STARTCHAR U+002C
ENCODING 44
SWIDTH 576 0
DWIDTH 9 0
BBX 6 9 0 -6
BITMAP
1C
1C
1C
1C
1C
1C
E0
E0
E0
ENDCHAR
STARTCHAR U+002D
ENCODING 45
SWIDTH 768 0
DWIDTH 12 0
BBX 9 3 0 9
BITMAP
FF80
FF80
FF80
ENDCHAR
STARTCHAR U+002E
ENCODING 46
SWIDTH 576 0
DWIDTH 9 0
BBX 3 3 3 0
BITMAP
E0
E0
E0
ENDCHAR
STARTCHAR U+002F
ENCODING 47
SWIDTH 768 0
DWIDTH 12 0
BBX 9 27 0 -3
BITMAP
0380
0380
0380
0380
0380
0380
0380
0380
0380
1C00
1C00
1C00
1C00
1C00
1C00
1C00
1C00
1C00
E000
E000
E000
E000
E000
E000
E000
E000
E000
ENDCHAR
STARTCHAR U+0030
ENCODING 48
SWIDTH 768 0
DWIDTH 12 0
BBX 9 21 0 0
BITMAP
1C00
1C00
1C00
E380
E380
E380
E380
E380
E380
FF80
FF80
FF80
E380
E380
E380
E380
E380
E380
1C00
1C00
1C00
ENDCHAR
STARTCHAR U+0031
ENCODING 49
SWIDTH 768 0
DWIDTH 12 0
BBX 9 21 0 0
BITMAP
1C00
1C00
1C00
FC00
FC00
FC00
1C00
1C00
1C00
1C00
1C00
1C00
1C00
1C00
1C00
1C00
1C00
1C00
FF80
FF80
FF80
ENDCHAR
STARTCHAR U+0032
ENCODING 50
SWIDTH 768 0
DWIDTH 12 0
BBX 9 21 0 0
BITMAP
FC00
FC00
FC00
0380
0380
0380
0380
0380
0380
1C00
1C00
1C00
1C00
1C00
1C00
E000
E000
E000
FF80
FF80
FF80
ENDCHAR
STARTCHAR U+0033
ENCODING 51
SWIDTH 768 0
DWIDTH 12 0
BBX 9 21 0 0
BITMAP
FC00
FC00
FC00
0380
0380
0380
0380
0380
0380
1C00
1C00
1C00
0380
0380
0380
0380
0380
0380
FC00
FC00
FC00
ENDCHAR
STARTCHAR U+0034
ENCODING 52
SWIDTH 768 0
DWIDTH 12 0
BBX 9 21 0 0
BITMAP
E000
E000
E000
E000
E000
E000
E380
E380
E380
E380
E380
E380
FF80
FF80
FF80
0380
0380
0380
0380
0380
0380
ENDCHAR
STARTCHAR U+0035
ENCODING 53
SWIDTH 768 0
DWIDTH 12 0
BBX 9 21 0 0
BITMAP
FF80
FF80
FF80
E000
E000
E000
E000
E000
E000
FC00
FC00
FC00
0380
0380
0380
0380
0380
0380
FC00
FC00
FC00
ENDCHAR
STARTCHAR U+0036
ENCODING 54
SWIDTH 768 0
DWIDTH 12 0
BBX 9 21 0 0
BITMAP
1C00
1C00
1C00
E000
E000
E000
E000
E000
E000
FC00
FC00
FC00
E380
E380
E380
E380
E380
E380
1C00
1C00
1C00
ENDCHAR
STARTCHAR U+0037
ENCODING 55
SWIDTH 768 0
DWIDTH 12 0
BBX 9 21 0 0
BITMAP
FF80
FF80
FF80
0380
0380
0380
0380
0380
0380
1C00
1C00
1C00
1C00
1C00
1C00
1C00
1C00
1C00
1C00
1C00
1C00
ENDCHAR
STARTCHAR U+0038
ENCODING 56
SWIDTH 768 0
DWIDTH 12 0
BBX 9 21 0 0
BITMAP
1C00
1C00
1C00
E380
E380
E380
E380
E380
E380
1C00
1C00
1C00
E380
E380
E380
E380
E380
E380
1C00
1C00
1C00
ENDCHAR
STARTCHAR U+0039
ENCODING 57
SWIDTH 768 0
DWIDTH 12 0
BBX 9 21 0 0
BITMAP
1C00
1C00
1C00
E380
E380
E380
E380
E380
E380
1F80
1F80
1F80
0380
0380
0380
0380
0380
0380
1C00
1C00
1C00
ENDCHAR
STARTCHAR U+003A
ENCODING 58
SWIDTH 576 0
DWIDTH 9 0
BBX 3 15 3 0
BITMAP
E0
E0
E0
00
00
00
00
00
00
00
00
00
E0
E0
E0
ENDCHAR
STARTCHAR U+003B
ENCODING 59
SWIDTH 576 0
DWIDTH 9 0
BBX 6 21 0 -6
BITMAP
1C
1C
1C
00
00
00
00
00
00
00
00
00
1C
1C
1C
1C
1C
1C
E0
E0
E0
ENDCHAR
STARTCHAR U+003C
ENCODING 60
SWIDTH 768 0
DWIDTH 12 0
BBX 9 15 0 3
BITMAP
0380
0380
0380
1C00
1C00
1C00
E000
E000
E000
1C00
1C00
1C00
0380
0380
0380
ENDCHAR
STARTCHAR U+003D
ENCODING 61
SWIDTH 1152 0
DWIDTH 18 0
BBX 15 9 0 6
BITMAP
FFFE
FFFE
FFFE
0000
0000
0000
FFFE
FFFE
FFFE
ENDCHAR
STARTCHAR U+003E
ENCODING 62
SWIDTH 768 0
DWIDTH 12 0
BBX 9 15 0 3
BITMAP
E000
E000
E000
1C00
1C00
1C00
0380
0380
0380
1C00
1C00
1C00
E000
E000
E000
ENDCHAR
STARTCHAR U+003F
ENCODING 63
SWIDTH 768 0
DWIDTH 12 0
BBX 9 21 0 0
BITMAP
FC00
FC00
FC00
0380
0380
0380
0380
0380
0380
1C00
1C00
1C00
1C00
1C00
1C00
0000
0000
0000
1C00
1C00
1C00
ENDCHAR
STARTCHAR U+0040
ENCODING 64
SWIDTH 960 0
DWIDTH 15 0
BBX 12 18 0 0
BITMAP
1F80
1F80
1F80
E070
E070
E070
E3F0
E3F0
E3F0
E3F0
E3F0
E3F0
E000
E000
E000
1F80
1F80
1F80
ENDCHAR
STARTCHAR U+0041
ENCODING 65
SWIDTH 768 0
DWIDTH 12 0
BBX 9 21 0 0
BITMAP
1C00
1C00
1C00
E380
E380
E380
E380
E380
E380
FF80
FF80
FF80
E380
E380
E380
E380
E380
E380
E380
E380
E380
ENDCHAR
STARTCHAR U+0042
ENCODING 66
SWIDTH 768 0
DWIDTH 12 0
BBX 9 21 0 0
BITMAP
FC00
FC00
FC00
E380
E380
E380
E380
E380
E380
FC00
FC00
FC00
E380
E380
E380
E380
E380
E380
FC00
FC00
FC00
ENDCHAR
STARTCHAR U+0043
ENCODING 67
SWIDTH 768 0
DWIDTH 12 0
BBX 9 21 0 0
BITMAP
1F80
1F80
1F80
E000
E000
E000
E000
E000
E000
E000
E000
E000
E000
E000
E000
E000
E000
E000
1F80
1F80
1F80
ENDCHAR
STARTCHAR U+0044
ENCODING 68
SWIDTH 768 0
DWIDTH 12 0
BBX 9 21 0 0
BITMAP
FC00
FC00
FC00
E380
E380
E380
E380
E380
E380
E380
E380
E380
E380
E380
E380
E380
E380
E380
FC00
FC00
FC00
ENDCHAR
STARTCHAR U+0045
ENCODING 69
SWIDTH 768 0
DWIDTH 12 0
BBX 9 21 0 0
BITMAP
FF80
FF80
FF80
E000
E000
E000
E000
E000
E000
FC00
FC00
FC00
E000
E000
E000
E000
E000
E000
FF80
FF80
FF80
ENDCHAR
STARTCHAR U+0046
ENCODING 70
SWIDTH 768 0
DWIDTH 12 0
BBX 9 21 0 0
BITMAP
FF80
FF80
FF80
E000
E000
E000
E000
E000
E000
FC00
FC00
FC00
E000
E000
E000
E000
E000
E000
E000
E000
E000
ENDCHAR
STARTCHAR U+0047
ENCODING 71
SWIDTH 768 0
DWIDTH 12 0
BBX 9 21 0 0
BITMAP
1F80
1F80
1F80
E000
E000
E000
E000
E000
E000
E380
E380
E380
E380
E380
E380
E380
E380
E380
1F80
1F80
1F80
ENDCHAR
STARTCHAR U+0048
ENCODING 72
SWIDTH 768 0
DWIDTH 12 0
BBX 9 21 0 0
BITMAP
E380
E380
E380
E380
E380
E380
E380
E380
E380
FF80
FF80
FF80
E380
E380
E380
E380
E380
E380
E380
E380
E380
ENDCHAR
STARTCHAR U+0049
ENCODING 73
SWIDTH 768 0
DWIDTH 12 0
BBX 9 21 0 0
BITMAP
FF80
FF80
FF80
1C00
1C00
1C00
1C00
1C00
1C00
1C00
1C00
1C00
1C00
1C00
1C00
1C00
1C00
1C00
FF80
FF80
FF80
ENDCHAR
STARTCHAR U+004A
ENCODING 74
SWIDTH 768 0
DWIDTH 12 0
BBX 9 21 0 0
BITMAP
0380
0380
0380
0380
0380
0380
0380
0380
0380
0380
0380
0380
0380
0380
0380
0380
0380
0380
FC00
FC00
FC00
ENDCHAR
STARTCHAR U+004B
ENCODING 75
SWIDTH 768 0
DWIDTH 12 0
BBX 9 21 0 0
BITMAP
E380
E380
E380
E380
E380
E380
E380
E380
E380
FC00
FC00
FC00
E380
E380
E380
E380
E380
E380
E380
E380
E380
ENDCHAR
STARTCHAR U+004C
ENCODING 76
SWIDTH 768 0
DWIDTH 12 0
BBX 9 21 0 0
BITMAP
E000
E000
E000
E000
E000
E000
E000
E000
E000
E000
E000
E000
E000
E000
E000
E000
E000
E000
FF80
FF80
FF80
ENDCHAR
STARTCHAR U+004D
ENCODING 77
SWIDTH 1152 0
DWIDTH 18 0
BBX 15 21 0 0
BITMAP
1C70
1C70
1C70
E38E
E38E
E38E
E38E
E38E
E38E
E38E
E38E
E38E
E38E
E38E
E38E
E38E
E38E
E38E
E00E
E00E
E00E
ENDCHAR
STARTCHAR U+004E
ENCODING 78
SWIDTH 768 0
DWIDTH 12 0
BBX 9 21 0 0
BITMAP
FC00
FC00
FC00
E380
E380
E380
E380
E380
E380
E380
E380
E380
E380
E380
E380
E380
E380
E380
E380
E380
E380
ENDCHAR
STARTCHAR U+004F
ENCODING 79
SWIDTH 768 0
DWIDTH 12 0
BBX 9 21 0 0
BITMAP
1C00
1C00
1C00
E380
E380
E380
E380
E380
E380
E380
E380
E380
E380
E380
E380
E380
E380
E380
1C00
1C00
1C00
ENDCHAR
STARTCHAR U+0050
ENCODING 80
SWIDTH 768 0
DWIDTH 12 0
BBX 9 21 0 0
BITMAP
FC00
FC00
FC00
E380
E380
E380
E380
E380
E380
FC00
FC00
FC00
E000
E000
E000
E000
E000
E000
E000
E000
E000
ENDCHAR
STARTCHAR U+0051
ENCODING 81
SWIDTH 768 0
DWIDTH 12 0
BBX 9 24 0 -3
BITMAP
1C00
1C00
1C00
E380
E380
E380
E380
E380
E380
E380
E380
E380
E380
E380
E380
E380
E380
E380
1C00
1C00
1C00
0380
0380
0380
ENDCHAR
STARTCHAR U+0052
ENCODING 82
SWIDTH 768 0
DWIDTH 12 0
BBX 9 21 0 0
BITMAP
FC00
FC00
FC00
E380
E380
E380
E380
E380
E380
FC00
FC00
FC00
E380
E380
E380
E380
E380
E380
E380
E380
E380
ENDCHAR
STARTCHAR U+0053
ENCODING 83
SWIDTH 768 0
DWIDTH 12 0
BBX 9 21 0 0
BITMAP
1F80
1F80
1F80
E000
E000
E000
E000
E000
E000
1C00
1C00
1C00
0380
0380
0380
0380
0380
0380
FC00
FC00
FC00
ENDCHAR
STARTCHAR U+0054
ENCODING 84
SWIDTH 768 0
DWIDTH 12 0
BBX 9 21 0 0
BITMAP
FF80
FF80
FF80
1C00
1C00
1C00
1C00
1C00
1C00
1C00
1C00
1C00
1C00
1C00
1C00
1C00
1C00
1C00
1C00
1C00
1C00
ENDCHAR
STARTCHAR U+0055
ENCODING 85
SWIDTH 768 0
DWIDTH 12 0
BBX 9 21 0 0
BITMAP
E380
E380
E380
E380
E380
E380
E380
E380
E380
E380
E380
E380
E380
E380
E380
E380
E380
E380
1C00
1C00
1C00
ENDCHAR
STARTCHAR U+0056
ENCODING 86
SWIDTH 768 0
DWIDTH 12 0
BBX 9 21 0 0
BITMAP
E380
E380
E380
E380
E380
E380
E380
E380
E380
E380
E380
E380
E380
E380
E380
FC00
FC00
FC00
E000
E000
E000
ENDCHAR
STARTCHAR U+0057
ENCODING 87
SWIDTH 1152 0
DWIDTH 18 0
BBX 15 21 0 0
BITMAP
E00E
E00E
E00E
E38E
E38E
E38E
E38E
E38E
E38E
E38E
E38E
E38E
E38E
E38E
E38E
FFF0
FFF0
FFF0
E380
E380
E380
ENDCHAR
STARTCHAR U+0058
ENCODING 88
SWIDTH 768 0
DWIDTH 12 0
BBX 9 21 0 0
BITMAP
E380
E380
E380
E380
E380
E380
E380
E380
E380
1C00
1C00
1C00
E380
E380
E380
E380
E380
E380
E380
E380
E380
ENDCHAR
STARTCHAR U+0059
ENCODING 89
SWIDTH 768 0
DWIDTH 12 0
BBX 9 21 0 0
BITMAP
E380
E380
E380
E380
E380
E380
E380
E380
E380
1C00
1C00
1C00
1C00
1C00
1C00
1C00
1C00
1C00
1C00
1C00
1C00
ENDCHAR
STARTCHAR U+005A
ENCODING 90
SWIDTH 768 0
DWIDTH 12 0
BBX 9 21 0 0
BITMAP
FF80
FF80
FF80
0380
0380
0380
1C00
1C00
1C00
1C00
1C00
1C00
E000
E000
E000
E000
E000
E000
FF80
FF80
FF80
ENDCHAR
STARTCHAR U+005B
ENCODING 91
SWIDTH 768 0
DWIDTH 12 0
BBX 9 27 0 -3
BITMAP
FF80
FF80
FF80
E000
E000
E000
E000
E000
E000
E000
E000
E000
E000
E000
E000
E000
E000
E000
E000
E000
E000
E000
E000
E000
FF80
FF80
FF80
ENDCHAR
STARTCHAR U+005C
ENCODING 92
SWIDTH 768 0
DWIDTH 12 0
BBX 9 27 0 -3
BITMAP
E000
E000
E000
E000
E000
E000
E000
E000
E000
1C00
1C00
1C00
1C00
1C00
1C00
1C00
1C00
1C00
0380
0380
0380
0380
0380
0380
0380
0380
0380
ENDCHAR
STARTCHAR U+005D
ENCODING 93
SWIDTH 768 0
DWIDTH 12 0
BBX 9 27 0 -3
BITMAP
FF80
FF80
FF80
0380
0380
0380
0380
0380
0380
0380
0380
0380
0380
0380
0380
0380
0380
0380
0380
0380
0380
0380
0380
0380
FF80
FF80
FF80
ENDCHAR
STARTCHAR U+005E
ENCODING 94
SWIDTH 768 0
DWIDTH 12 0
BBX 9 6 0 15
BITMAP
1C00
1C00
1C00
E380
E380
E380
ENDCHAR
STARTCHAR U+005F
ENCODING 95
SWIDTH 768 0
DWIDTH 12 0
BBX 9 3 3 -3
BITMAP
FF80
FF80
FF80
ENDCHAR
STARTCHAR U+0060
ENCODING 96
SWIDTH 576 0
DWIDTH 9 0
BBX 6 6 0 15
BITMAP
E0
E0
E0
1C
1C
1C
ENDCHAR
STARTCHAR U+0061
ENCODING 97
SWIDTH 768 0
DWIDTH 12 0
BBX 9 15 0 0
BITMAP
1C00
1C00
1C00
0380
0380
0380
1F80
1F80
1F80
E380
E380
E380
1F80
1F80
1F80
ENDCHAR
STARTCHAR U+0062
ENCODING 98
SWIDTH 768 0
DWIDTH 12 0
BBX 9 21 0 0
BITMAP
E000
E000
E000
E000
E000
E000
FC00
FC00
FC00
E380
E380
E380
E380
E380
E380
E380
E380
E380
FC00
FC00
FC00
ENDCHAR
STARTCHAR U+0063
ENCODING 99
SWIDTH 768 0
DWIDTH 12 0
BBX 9 15 0 0
BITMAP
1F80
1F80
1F80
E000
E000
E000
E000
E000
E000
E000
E000
E000
1F80
1F80
1F80
ENDCHAR
STARTCHAR U+0064
ENCODING 100
SWIDTH 768 0
DWIDTH 12 0
BBX 9 21 0 0
BITMAP
0380
0380
0380
0380
0380
0380
1F80
1F80
1F80
E380
E380
E380
E380
E380
E380
E380
E380
E380
1F80
1F80
1F80
ENDCHAR
STARTCHAR U+0065
ENCODING 101
SWIDTH 768 0
DWIDTH 12 0
BBX 9 15 0 0
BITMAP
1C00
1C00
1C00
E380
E380
E380
FF80
FF80
FF80
E000
E000
E000
1F80
1F80
1F80
ENDCHAR
STARTCHAR U+0066
ENCODING 102
SWIDTH 768 0
DWIDTH 12 0
BBX 9 21 0 0
BITMAP
0380
0380
0380
1C00
1C00
1C00
FF80
FF80
FF80
1C00
1C00
1C00
1C00
1C00
1C00
1C00
1C00
1C00
1C00
1C00
1C00
ENDCHAR
STARTCHAR U+0067
ENCODING 103
SWIDTH 768 0
DWIDTH 12 0
BBX 9 21 0 -6
BITMAP
1F80
1F80
1F80
E380
E380
E380
E380
E380
E380
E380
E380
E380
1F80
1F80
1F80
0380
0380
0380
1C00
1C00
1C00
ENDCHAR
STARTCHAR U+0068
ENCODING 104
SWIDTH 768 0
DWIDTH 12 0
BBX 9 21 0 0
BITMAP
E000
E000
E000
E000
E000
E000
FC00
FC00
FC00
E380
E380
E380
E380
E380
E380
E380
E380
E380
E380
E380
E380
ENDCHAR
STARTCHAR U+0069
ENCODING 105
SWIDTH 576 0
DWIDTH 9 0
BBX 6 21 0 0
BITMAP
1C
1C
1C
00
00
00
FC
FC
FC
1C
1C
1C
1C
1C
1C
1C
1C
1C
1C
1C
1C
ENDCHAR
STARTCHAR U+006A
ENCODING 106
SWIDTH 576 0
DWIDTH 9 0
BBX 6 27 0 -6
BITMAP
1C
1C
1C
00
00
00
FC
FC
FC
1C
1C
1C
1C
1C
1C
1C
1C
1C
1C
1C
1C
1C
1C
1C
E0
E0
E0
ENDCHAR
STARTCHAR U+006B
ENCODING 107
SWIDTH 768 0
DWIDTH 12 0
BBX 9 21 0 0
BITMAP
E000
E000
E000
E000
E000
E000
E380
E380
E380
E380
E380
E380
FC00
FC00
FC00
E380
E380
E380
E380
E380
E380
ENDCHAR
STARTCHAR U+006C
ENCODING 108
SWIDTH 576 0
DWIDTH 9 0
BBX 6 21 0 0
BITMAP
FC
FC
FC
1C
1C
1C
1C
1C
1C
1C
1C
1C
1C
1C
1C
1C
1C
1C
1C
1C
1C
ENDCHAR
STARTCHAR U+006D
ENCODING 109
SWIDTH 1152 0
DWIDTH 18 0
BBX 15 15 0 0
BITMAP
FC70
FC70
FC70
E38E
E38E
E38E
E38E
E38E
E38E
E38E
E38E
E38E
E38E
E38E
E38E
ENDCHAR
STARTCHAR U+006E
ENCODING 110
SWIDTH 768 0
DWIDTH 12 0
BBX 9 15 0 0
BITMAP
FC00
FC00
FC00
E380
E380
E380
E380
E380
E380
E380
E380
E380
E380
E380
E380
ENDCHAR
STARTCHAR U+006F
ENCODING 111
SWIDTH 768 0
DWIDTH 12 0
BBX 9 15 0 0
BITMAP
1C00
1C00
1C00
E380
E380
E380
E380
E380
E380
E380
E380
E380
1C00
1C00
1C00
ENDCHAR
STARTCHAR U+0070
ENCODING 112
SWIDTH 768 0
DWIDTH 12 0
BBX 9 21 0 -6
BITMAP
FC00
FC00
FC00
E380
E380
E380
E380
E380
E380
E380
E380
E380
FC00
FC00
FC00
E000
E000
E000
E000
E000
E000
ENDCHAR
STARTCHAR U+0071
ENCODING 113
SWIDTH 768 0
DWIDTH 12 0
BBX 9 21 0 -6
BITMAP
1F80
1F80
1F80
E380
E380
E380
E380
E380
E380
E380
E380
E380
1F80
1F80
1F80
0380
0380
0380
0380
0380
0380
ENDCHAR
STARTCHAR U+0072
ENCODING 114
SWIDTH 768 0
DWIDTH 12 0
BBX 9 15 0 0
BITMAP
E380
E380
E380
FC00
FC00
FC00
E000
E000
E000
E000
E000
E000
E000
E000
E000
ENDCHAR
STARTCHAR U+0073
ENCODING 115
SWIDTH 768 0
DWIDTH 12 0
BBX 9 15 0 0
BITMAP
1F80
1F80
1F80
E000
E000
E000
1C00
1C00
1C00
0380
0380
0380
FC00
FC00
FC00
ENDCHAR
STARTCHAR U+0074
ENCODING 116
SWIDTH 768 0
DWIDTH 12 0
BBX 9 21 0 0
BITMAP
1C00
1C00
1C00
1C00
1C00
1C00
FF80
FF80
FF80
1C00
1C00
1C00
1C00
1C00
1C00
1C00
1C00
1C00
0380
0380
0380
ENDCHAR
STARTCHAR U+0075
ENCODING 117
SWIDTH 768 0
DWIDTH 12 0
BBX 9 15 0 0
BITMAP
E380
E380
E380
E380
E380
E380
E380
E380
E380
E380
E380
E380
1F80
1F80
1F80
ENDCHAR
STARTCHAR U+0076
ENCODING 118
SWIDTH 768 0
DWIDTH 12 0
BBX 9 15 0 0
BITMAP
E380
E380
E380
E380
E380
E380
E380
E380
E380
FC00
FC00
FC00
E000
E000
E000
ENDCHAR
STARTCHAR U+0077
ENCODING 119
SWIDTH 1152 0
DWIDTH 18 0
BBX 15 15 0 0
BITMAP
E38E
E38E
E38E
E38E
E38E
E38E
E38E
E38E
E38E
FFF0
FFF0
FFF0
E380
E380
E380
ENDCHAR
STARTCHAR U+0078
ENCODING 120
SWIDTH 768 0
DWIDTH 12 0
BBX 9 15 0 0
BITMAP
E380
E380
E380
E380
E380
E380
1C00
1C00
1C00
E380
E380
E380
E380
E380
E380
ENDCHAR
STARTCHAR U+0079
ENCODING 121
SWIDTH 768 0
DWIDTH 12 0
BBX 9 21 0 -6
BITMAP
E380
E380
E380
E380
E380
E380
E380
E380
E380
E380
E380
E380
1F80
1F80
1F80
0380
0380
0380
1C00
1C00
1C00
ENDCHAR
STARTCHAR U+007A
ENCODING 122
SWIDTH 768 0
DWIDTH 12 0
BBX 9 15 0 0
BITMAP
FF80
FF80
FF80
0380
0380
0380
1C00
1C00
1C00
E000
E000
E000
FF80
FF80
FF80
ENDCHAR
STARTCHAR U+007B
ENCODING 123
SWIDTH 768 0
DWIDTH 12 0
BBX 9 27 0 -3
BITMAP
0380
0380
0380
1C00
1C00
1C00
1C00
1C00
1C00
1C00
1C00
1C00
E000
E000
E000
1C00
1C00
1C00
1C00
1C00
1C00
1C00
1C00
1C00
0380
0380
0380
ENDCHAR
STARTCHAR U+007C
ENCODING 124
SWIDTH 384 0
DWIDTH 6 0
BBX 3 27 0 -3
BITMAP
E0
E0
E0
E0
E0
E0
E0
E0
E0
E0
E0
E0
E0
E0
E0
E0
E0
E0
E0
E0
E0
E0
E0
E0
E0
E0
E0
ENDCHAR
STARTCHAR U+007D
ENCODING 125
SWIDTH 768 0
DWIDTH 12 0
BBX 9 27 0 -3
BITMAP
E000
E000
E000
1C00
1C00
1C00
1C00
1C00
1C00
1C00
1C00
1C00
0380
0380
0380
1C00
1C00
1C00
1C00
1C00
1C00
1C00
1C00
1C00
E000
E000
E000
ENDCHAR
STARTCHAR U+007E
ENCODING 126
SWIDTH 960 0
DWIDTH 15 0
BBX 12 6 0 9
BITMAP
FC70
FC70
FC70
E3F0
E3F0
E3F0
ENDCHAR
ENDFONT
